<?xml version="1.0" encoding="UTF-8"?>
<svg id="Layer_1" xmlns="http://www.w3.org/2000/svg" xmlns:xlink="http://www.w3.org/1999/xlink" viewBox="0 0 473.95 481.87">
  <defs>
    <style>
      .cls-1 {
        mask: url(#mask);
      }

      .cls-2 {
        fill: url(#linear-gradient);
      }

      .cls-3 {
        fill: #fff;
      }
    </style>
    <mask id="mask" x="-11.46" y="-11.52" width="496.91" height="504.85" maskUnits="userSpaceOnUse">
      <g id="mask0_2230_30">
        <path class="cls-3" d="M282.17,242.69l-14.14-11.92,95.39-113.16L241.16,14.55,14.61,283.3l73.75,62.17-11.92,14.15L-11.46,285.52,238.94-11.52l150.54,126.9-107.31,127.3ZM235.06,493.33l-150.54-126.9,108.16-128.31,14.14,11.92-96.24,114.17,122.25,103.05,226.55-268.75-73.75-62.17,11.92-14.15,87.9,74.09-250.4,297.04ZM261.11,226.66l-14.15-11.92,79.21-93.96-81.84-68.99L51.85,280.12l53.55,45.14-11.92,14.15-67.7-57.07L242.11,25.72l110.13,92.84-91.13,108.1ZM231.9,456.09l-110.13-92.84,91.13-108.1,14.14,11.92-79.21,93.96,81.84,68.99,192.48-228.34-53.55-45.14,11.92-14.15,67.7,57.07-216.33,256.62ZM228.72,418.85l-69.71-58.77,74.09-87.9,14.14,11.92-62.17,73.75,41.43,34.92,158.41-187.92-33.34-28.11,11.92-14.15,47.49,40.03-182.26,216.21ZM241.75,208.62l-14.14-11.92,61.32-72.74-41.42-34.92-158.41,187.92,33.34,28.11-11.92,14.14-47.49-40.03L245.28,62.96l69.71,58.77-73.24,86.89Z"/>
      </g>
    </mask>
    <linearGradient id="linear-gradient" x1="121.19" y1="462.12" x2="540.53" y2="-37.8" gradientTransform="translate(81.63 -137.59) rotate(90) scale(1 -1)" gradientUnits="userSpaceOnUse">
      <stop offset="0" stop-color="#ed4463"/>
      <stop offset="1" stop-color="#414ea1"/>
    </linearGradient>
  </defs>
  <g class="cls-1">
    <rect class="cls-2" x="42.76" y="79.73" width="388.42" height="322.41" rx="28" ry="28" transform="translate(-99.98 266.83) rotate(-49.87)"/>
  </g>
</svg>